<svg width="22" height="21" viewBox="0 0 22 21" fill="none" xmlns="http://www.w3.org/2000/svg">
<path d="M2.42686 13.1389C3.5704 17.1017 7.22451 20 11.5556 20C16.8023 20 21.0556 15.7467 21.0556 10.5C21.0556 5.25329 16.8023 1 11.5556 1C8.93102 1 6.55506 2.06428 4.83571 3.78481C3.11637 5.50534 1 8.38889 1 8.38889V2.05556" stroke="#121212" stroke-width="1.8" stroke-linecap="round" stroke-linejoin="round"/>
<path d="M8.56 13.5V8.924L7.48 9.588V8.388L8.56 7.74H9.672V13.5H8.56ZM13.3288 13.62C12.9021 13.62 12.5288 13.5307 12.2088 13.352C11.8888 13.1733 11.6395 12.924 11.4608 12.604C11.2821 12.284 11.1928 11.9107 11.1928 11.484V9.756C11.1928 9.32933 11.2821 8.956 11.4608 8.636C11.6395 8.316 11.8888 8.06667 12.2088 7.888C12.5288 7.70933 12.9021 7.62 13.3288 7.62C13.7555 7.62 14.1288 7.70933 14.4488 7.888C14.7688 8.06667 15.0181 8.316 15.1968 8.636C15.3755 8.956 15.4648 9.32933 15.4648 9.756V11.484C15.4648 11.9107 15.3755 12.284 15.1968 12.604C15.0181 12.924 14.7688 13.1733 14.4488 13.352C14.1288 13.5307 13.7555 13.62 13.3288 13.62ZM13.3288 12.588C13.5208 12.588 13.6941 12.5427 13.8488 12.452C14.0035 12.3613 14.1261 12.2387 14.2168 12.084C14.3075 11.9293 14.3528 11.756 14.3528 11.564V9.668C14.3528 9.476 14.3075 9.30267 14.2168 9.148C14.1261 8.99333 14.0035 8.87067 13.8488 8.78C13.6941 8.68933 13.5208 8.644 13.3288 8.644C13.1368 8.644 12.9635 8.68933 12.8088 8.78C12.6541 8.87067 12.5315 8.99333 12.4408 9.148C12.3501 9.30267 12.3048 9.476 12.3048 9.668V11.564C12.3048 11.756 12.3501 11.9293 12.4408 12.084C12.5315 12.2387 12.6541 12.3613 12.8088 12.452C12.9635 12.5427 13.1368 12.588 13.3288 12.588Z" fill="#121212"/>
</svg>
