<svg width="24" height="22" viewBox="0 0 23 21" fill="none" xmlns="http://www.w3.org/2000/svg">
<path d="M1.33 7.37722C1.33 7.0269 1.33 6.85174 1.34462 6.70421C1.4856 5.28127 2.61127 4.1556 4.03421 4.01462C4.18175 4 4.36636 4 4.73559 4C4.87786 4 4.94899 4 5.00939 3.99634C5.78061 3.94963 6.45595 3.46288 6.74415 2.746C6.76672 2.68986 6.78781 2.62657 6.83 2.5C6.87219 2.37343 6.89329 2.31014 6.91586 2.254C7.20405 1.53712 7.87939 1.05037 8.65062 1.00366C8.71101 1 8.77772 1 8.91114 1H13.7489C13.8823 1 13.949 1 14.0094 1.00366C14.7806 1.05037 15.456 1.53712 15.7441 2.254C15.7667 2.31014 15.7878 2.37343 15.83 2.5C15.8722 2.62657 15.8933 2.68986 15.9159 2.746C16.2041 3.46288 16.8794 3.94963 17.6506 3.99634C17.711 4 17.7821 4 17.9244 4C18.2936 4 18.4783 4 18.6258 4.01462C20.0487 4.1556 21.1744 5.28127 21.3154 6.70421C21.33 6.85174 21.33 7.0269 21.33 7.37722V15.2C21.33 16.8802 21.33 17.7202 21.003 18.362C20.7154 18.9265 20.2565 19.3854 19.692 19.673C19.0502 20 18.2102 20 16.53 20H6.13C4.44984 20 3.60977 20 2.96803 19.673C2.40354 19.3854 1.9446 18.9265 1.65698 18.362C1.33 17.7202 1.33 16.8802 1.33 15.2V7.37722Z" stroke="#121212" stroke-width="1.5" stroke-linecap="round" stroke-linejoin="round"/>
<path d="M11.33 15.5C13.5391 15.5 15.33 13.7091 15.33 11.5C15.33 9.29086 13.5391 7.5 11.33 7.5C9.12086 7.5 7.33 9.29086 7.33 11.5C7.33 13.7091 9.12086 15.5 11.33 15.5Z" stroke="#121212" stroke-width="1.5" stroke-linecap="round" stroke-linejoin="round"/>
</svg>
