<svg width="20" height="19" viewBox="0 0 20 19" fill="none" xmlns="http://www.w3.org/2000/svg">
<path d="M10 17.6L9.90995 17.465C9.28477 16.5272 8.97218 16.0583 8.55919 15.7189C8.19357 15.4184 7.77229 15.1929 7.31944 15.0554C6.80793 14.9 6.2444 14.9 5.11734 14.9H3.88C2.87191 14.9 2.36786 14.9 1.98282 14.7038C1.64413 14.5313 1.36876 14.2559 1.19619 13.9172C1 13.5322 1 13.0281 1 12.02V4.28002C1 3.27193 1 2.76788 1.19619 2.38284C1.36876 2.04415 1.64413 1.76878 1.98282 1.59621C2.36786 1.40002 2.87191 1.40002 3.88 1.40002H4.24C6.25619 1.40002 7.26428 1.40002 8.03437 1.7924C8.71175 2.13755 9.26248 2.68828 9.60762 3.36566C10 4.13574 10 5.14384 10 7.16002M10 17.6V7.16002M10 17.6L10.09 17.465C10.7152 16.5272 11.0278 16.0583 11.4408 15.7189C11.8064 15.4184 12.2277 15.1929 12.6806 15.0554C13.1921 14.9 13.7556 14.9 14.8827 14.9H16.12C17.1281 14.9 17.6321 14.9 18.0172 14.7038C18.3559 14.5313 18.6312 14.2559 18.8038 13.9172C19 13.5322 19 13.0281 19 12.02V4.28002C19 3.27193 19 2.76788 18.8038 2.38284C18.6312 2.04415 18.3559 1.76878 18.0172 1.59621C17.6321 1.40002 17.1281 1.40002 16.12 1.40002H15.76C13.7438 1.40002 12.7357 1.40002 11.9656 1.7924C11.2883 2.13755 10.7375 2.68828 10.3924 3.36566C10 4.13574 10 5.14384 10 7.16002" stroke="currentColor" stroke-linecap="round" stroke-linejoin="round" stroke-width="1.5" />
</svg>
