<svg width="18" height="23" viewBox="0 0 17 22" fill="none" xmlns="http://www.w3.org/2000/svg">
<path d="M9.27624 5.47059C8.99588 4.84314 8.10519 4.84313 7.82484 5.47059L7.26781 6.71727L6.02113 7.2743C5.39367 7.55466 5.39367 8.44534 6.02113 8.7257L7.26781 9.28273L7.82484 10.5294C8.10519 11.1569 8.99588 11.1569 9.27624 10.5294L9.83326 9.28273L11.0799 8.7257C11.7074 8.44534 11.7074 7.55466 11.0799 7.2743L9.83326 6.71727L9.27624 5.47059Z" fill="currentColor"/>

<path d="M14.0343 2.31373C13.8474 1.89542 13.2536 1.89542 13.0667 2.31373L12.6954 3.14485L11.8643 3.5162C11.446 3.7031 11.446 4.2969 11.8643 4.4838L12.6954 4.85515L13.0667 5.68627C13.2536 6.10458 13.8474 6.10458 14.0343 5.68627L14.4057 4.85515L15.2368 4.4838C15.6551 4.2969 15.6551 3.7031 15.2368 3.5162L14.4057 3.14485L14.0343 2.31373Z" fill="currentColor"/>

<path d="M9.27624 5.47059C8.99588 4.84314 8.10519 4.84313 7.82484 5.47059L7.26781 6.71727L6.02113 7.2743C5.39367 7.55466 5.39367 8.44534 6.02113 8.7257L7.26781 9.28273L7.82484 10.5294C8.10519 11.1569 8.99588 11.1569 9.27624 10.5294L9.83326 9.28273L11.0799 8.7257C11.7074 8.44534 11.7074 7.55466 11.0799 7.2743L9.83326 6.71727L9.27624 5.47059Z" stroke="currentColor" stroke-width="0.2"/>

<path d="M14.0343 2.31373C13.8474 1.89542 13.2536 1.89542 13.0667 2.31373L12.6954 3.14485L11.8643 3.5162C11.446 3.7031 11.446 4.2969 11.8643 4.4838L12.6954 4.85515L13.0667 5.68627C13.2536 6.10458 13.8474 6.10458 14.0343 5.68627L14.4057 4.85515L15.2368 4.4838C15.6551 4.2969 15.6551 3.7031 15.2368 3.5162L14.4057 3.14485L14.0343 2.31373Z" stroke="currentColor" stroke-width="0.2"/>

<path d="M12.5505 15V18C12.5505 19.6569 11.2074 21 9.55054 21H7.55054C5.89368 21 4.55054 19.6569 4.55054 18V15M8.55054 1C4.4084 1 1.05054 4.35867 1.05054 8.5018C1.05054 11.2785 2.55878 13.7029 4.80054 15M16.0505 8.5018C16.0505 11.2785 14.5423 13.7029 12.3005 15" stroke="currentColor" stroke-width="1.5" stroke-linecap="round" stroke-linejoin="round"/>

<path d="M12.5505 15L4.55054 15M12.5505 18L4.55054 18" stroke="currentColor" stroke-width="1.2" stroke-linecap="round" stroke-linejoin="round"/>
</svg>
