<svg width="20" height="21" viewBox="0 0 20 21" fill="none" xmlns="http://www.w3.org/2000/svg">
<path d="M7.381 7.73488C7.59259 7.13338 8.01024 6.62617 8.55996 6.3031C9.10968 5.98002 9.75601 5.86192 10.3845 5.96972C11.0129 6.07751 11.5829 6.40425 11.9936 6.89205C12.4042 7.37985 12.6289 7.99725 12.628 8.63488C12.628 10.4349 9.928 11.3349 9.928 11.3349M10 14.9349H10.009M19 10.4349C19 15.4054 14.9706 19.4349 10 19.4349C5.02944 19.4349 1 15.4054 1 10.4349C1 5.46431 5.02944 1.43488 10 1.43488C14.9706 1.43488 19 5.46431 19 10.4349Z" stroke="currentColor" stroke-width="1.5" stroke-linecap="round" stroke-linejoin="round"/>
</svg>
