<svg width="20" height="20" viewBox="0 0 20 20" fill="none" xmlns="http://www.w3.org/2000/svg">
<g clip-path="url(#clip0_40_3104)">
<path d="M1.66667 11.6669C2.58714 11.6669 3.33333 10.9208 3.33333 10.0003C3.33333 9.07981 2.58714 8.33362 1.66667 8.33362C0.746192 8.33362 0 9.07981 0 10.0003C0 10.9208 0.746192 11.6669 1.66667 11.6669Z" fill="currentColor"/>
<path d="M10 11.6669C10.9205 11.6669 11.6667 10.9208 11.6667 10.0003C11.6667 9.07981 10.9205 8.33362 10 8.33362C9.07956 8.33362 8.33337 9.07981 8.33337 10.0003C8.33337 10.9208 9.07956 11.6669 10 11.6669Z" fill="currentColor"/>
<path d="M18.3333 11.6669C19.2538 11.6669 20 10.9208 20 10.0003C20 9.07981 19.2538 8.33362 18.3333 8.33362C17.4128 8.33362 16.6666 9.07981 16.6666 10.0003C16.6666 10.9208 17.4128 11.6669 18.3333 11.6669Z" fill="currentColor"/>
</g>
<defs>
<clipPath id="clip0_40_3104">
<rect width="20" height="20" fill="currentColor"/>
</clipPath>
</defs>
</svg>
