<svg width="22" height="22" viewBox="0 0 22 22" fill="none" xmlns="http://www.w3.org/2000/svg">
<path fill-rule="evenodd" clip-rule="evenodd" d="M11 0C4.92487 0 0 4.92487 0 11C0 17.0751 4.92487 22 11 22C17.0751 22 22 17.0751 22 11C22 4.92487 17.0751 0 11 0ZM16.2071 9.31887C16.5976 8.92834 16.5976 8.29518 16.2071 7.90465C15.8166 7.51413 15.1834 7.51413 14.7929 7.90465L9.5 13.1975L7.20711 10.9047C6.81658 10.5141 6.18342 10.5141 5.79289 10.9047C5.40237 11.2952 5.40237 11.9283 5.79289 12.3189L8.79289 15.3189C8.98042 15.5064 9.23478 15.6118 9.5 15.6118C9.76521 15.6118 10.0196 15.5064 10.2071 15.3189L16.2071 9.31887Z" fill="#441C78"/>
</svg>
