<svg width="22" height="22" viewBox="0 0 22 22" fill="none" xmlns="http://www.w3.org/2000/svg">
<g clip-path="url(#clip0_1682_125)">
<path d="M8.28438 0.515591C5.87813 1.20309 4.46875 2.09684 2.78438 3.98747C0.30938 6.80622 -0.44687 10.9656 0.85938 14.7812C1.71875 17.3937 4.60625 20.2812 7.21875 21.1406C11.4469 22.5843 15.5031 21.6562 18.5969 18.5968C21.6563 15.5031 22.5844 11.4468 21.1406 7.21872C20.2813 4.67497 17.3594 1.71872 14.9531 0.928091C12.375 0.068716 10.3469 -0.034409 8.28438 0.515591ZM9.45313 7.94059L11 9.38434L12.5469 7.94059C14.1969 6.42809 14.4375 6.32497 15.0563 6.94372C15.675 7.56247 15.5719 7.80309 14.0594 9.45309L12.6156 11L14.0594 12.5468C15.5719 14.1968 15.675 14.4375 15.0563 15.0562C14.4375 15.675 14.1969 15.5718 12.5469 14.0593L11 12.6156L9.45313 14.0593C7.80313 15.5718 7.5625 15.675 6.94375 15.0562C6.325 14.4375 6.42813 14.1968 7.94063 12.5468L9.38438 11L7.94063 9.45309C6.42813 7.80309 6.325 7.56247 6.94375 6.94372C7.5625 6.32497 7.80313 6.42809 9.45313 7.94059Z" fill="#C91E35"/>
</g>
<defs>
<clipPath id="clip0_1682_125">
<rect width="22" height="22" fill="white"/>
</clipPath>
</defs>
</svg>
