<svg width="22" height="22" viewBox="0 0 24 24" fill="none" xmlns="http://www.w3.org/2000/svg">
<path d="M9 5C9 4.06812 9 3.60218 9.15224 3.23463C9.35523 2.74458 9.74458 2.35523 10.2346 2.15224C10.6022 2 11.0681 2 12 2L18.8 2C19.9201 2 20.4802 2 20.908 2.21799C21.2843 2.40973 21.5903 2.71569 21.782 3.09202C22 3.51984 22 4.0799 22 5.2V12C22 12.9319 22 13.3978 21.8478 13.7654C21.6448 14.2554 21.2554 14.6448 20.7654 14.8478C20.3978 15 19.9319 15 19 15M2 12.2L2 18.8C2 19.9201 2 20.4802 2.21799 20.908C2.40973 21.2843 2.71569 21.5903 3.09202 21.782C3.51984 22 4.0799 22 5.2 22L11.8 22C12.9201 22 13.4802 22 13.908 21.782C14.2843 21.5903 14.5903 21.2843 14.782 20.908C15 20.4802 15 19.9201 15 18.8L15 12.2C15 11.0799 15 10.5198 14.782 10.092C14.5903 9.71569 14.2843 9.40973 13.908 9.21799C13.4802 9 12.9201 9 11.8 9L5.2 9C4.0799 9 3.51984 9 3.09202 9.21799C2.71569 9.40973 2.40973 9.71569 2.21799 10.092C2 10.5198 2 11.0799 2 12.2Z" stroke="currentColor" stroke-width="1.5" stroke-linecap="round" stroke-linejoin="round"/>
</svg>
