<svg width="19" height="20" viewBox="0 0 18 19" fill="none" xmlns="http://www.w3.org/2000/svg">
<path d="M6 14.6001L4 12.6001" stroke="currentColor" stroke-width="1.4" stroke-linecap="round"/>
<path d="M6 14.6001L4 16.6001" stroke="currentColor" stroke-width="1.4" stroke-linecap="round"/>
<path d="M9.40002 7.3V1.9C9.40002 1.40294 9.80297 1 10.3 1H15.7C16.1971 1 16.6 1.40294 16.6 1.9V7.3C16.6 7.79706 16.1971 8.2 15.7 8.2H10.3C9.80297 8.2 9.40002 7.79706 9.40002 7.3Z" stroke="currentColor" stroke-width="1.4"/>
<path d="M9.40002 17.3V11.9C9.40002 11.4029 9.80297 11 10.3 11H15.7C16.1971 11 16.6 11.4029 16.6 11.9V17.3C16.6 17.7971 16.1971 18.2 15.7 18.2H10.3C9.80297 18.2 9.40002 17.7971 9.40002 17.3Z" stroke="currentColor" stroke-width="1.4"/>
<path d="M6 14.6001H3C1.89543 14.6001 1 13.7047 1 12.6001V6.6001C1 5.49553 1.89543 4.6001 3 4.6001H6" stroke="currentColor" stroke-width="1.4" stroke-linecap="round"/>
</svg>
