<svg width="23" height="23" viewBox="0 0 21 20" fill="none" xmlns="http://www.w3.org/2000/svg">
<path d="M6.59741 1H6.39741C4.71725 1 3.87718 1 3.23544 1.32698C2.67095 1.6146 2.21201 2.07354 1.92439 2.63803C1.59741 3.27976 1.59741 4.11984 1.59741 5.8V6M6.59741 19H6.39741C4.71725 19 3.87718 19 3.23544 18.673C2.67095 18.3854 2.21201 17.9265 1.92439 17.362C1.59741 16.7202 1.59741 15.8802 1.59741 14.2V14M19.5974 6V5.8C19.5974 4.11984 19.5974 3.27976 19.2704 2.63803C18.9828 2.07354 18.5239 1.6146 17.9594 1.32698C17.3176 1 16.4776 1 14.7974 1H14.5974M19.5974 14V14.2C19.5974 15.8802 19.5974 16.7202 19.2704 17.362C18.9828 17.9265 18.5239 18.3854 17.9594 18.673C17.3176 19 16.4776 19 14.7974 19H14.5974M6.09741 10H6.10741M15.0974 10H15.1074M10.5974 10H10.6074" stroke="currentColor" stroke-width="2" stroke-linecap="round" stroke-linejoin="round"/>
</svg>
