<svg width="20" height="23" viewBox="0 0 20 23" fill="none" xmlns="http://www.w3.org/2000/svg">
<path d="M7.38076 18.806L7.96802 20.1204C8.1426 20.5117 8.42751 20.8442 8.78819 21.0775C9.14887 21.3108 9.56982 21.4349 10 21.4349C10.4302 21.4349 10.8511 21.3108 11.2118 21.0775C11.5725 20.8442 11.8574 20.5117 12.032 20.1204L12.6192 18.806C12.8283 18.3396 13.1799 17.9507 13.6241 17.6949C14.071 17.4383 14.588 17.329 15.1012 17.3827L16.5381 17.5349C16.9658 17.5799 17.3974 17.5005 17.7807 17.3062C18.164 17.1119 18.4824 16.8112 18.6973 16.4404C18.9125 16.0699 19.0151 15.6452 18.9925 15.2178C18.9699 14.7904 18.8231 14.3787 18.57 14.0327L17.7193 12.8693C17.4164 12.452 17.2545 11.9497 17.2571 11.4349C17.257 10.9215 17.4204 10.4212 17.7238 10.006L18.5745 8.84265C18.8276 8.49663 18.9743 8.08495 18.9969 7.65755C19.0195 7.23015 18.917 6.80542 18.7018 6.43488C18.4868 6.06411 18.1684 5.76336 17.7852 5.5691C17.4019 5.37484 16.9703 5.29541 16.5425 5.34043L15.1056 5.49265C14.5925 5.54628 14.0755 5.437 13.6285 5.18043C13.1835 4.92313 12.8318 4.53223 12.6237 4.06376L12.032 2.74932C11.8574 2.35805 11.5725 2.02559 11.2118 1.79227C10.8511 1.55896 10.4302 1.43481 10 1.43488C9.56982 1.43481 9.14887 1.55896 8.78819 1.79227C8.42751 2.02559 8.1426 2.35805 7.96802 2.74932L7.38076 4.06376C7.17269 4.53223 6.82094 4.92313 6.37593 5.18043C5.929 5.437 5.41197 5.54628 4.89884 5.49265L3.45748 5.34043C3.02975 5.29541 2.59809 5.37484 2.21482 5.5691C1.83156 5.76336 1.51316 6.06411 1.29822 6.43488C1.08301 6.80542 0.980476 7.23015 1.00307 7.65755C1.02566 8.08495 1.17241 8.49663 1.4255 8.84265L2.27625 10.006C2.57965 10.4212 2.74303 10.9215 2.74293 11.4349C2.74303 11.9483 2.57965 12.4485 2.27625 12.8638L1.4255 14.0271C1.17241 14.3731 1.02566 14.7848 1.00307 15.2122C0.980476 15.6396 1.08301 16.0643 1.29822 16.4349C1.51337 16.8054 1.83181 17.106 2.21502 17.3003C2.59823 17.4945 3.02978 17.5741 3.45748 17.5293L4.89438 17.3771C5.40751 17.3235 5.92454 17.4328 6.37147 17.6893C6.81814 17.9459 7.17152 18.3369 7.38076 18.806Z" stroke="currentColor" stroke-width="1.7" stroke-linecap="round" stroke-linejoin="round"/>
<path d="M9.99821 14.4349C11.6631 14.4349 13.0127 13.0917 13.0127 11.4349C13.0127 9.77802 11.6631 8.43488 9.99821 8.43488C8.33336 8.43488 6.98373 9.77802 6.98373 11.4349C6.98373 13.0917 8.33336 14.4349 9.99821 14.4349Z" stroke="currentColor" stroke-width="1.7" stroke-linecap="round" stroke-linejoin="round"/>
</svg>
