<svg width="17" height="14" viewBox="0 0 23 20" fill="none" xmlns="http://www.w3.org/2000/svg">
<path d="M12.1805 15H19.3544M12.1805 15L10.2675 19M12.1805 15L15.0457 9.00902C15.2766 8.52627 15.3921 8.2849 15.55 8.20862C15.6874 8.14228 15.8475 8.14228 15.9849 8.20862C16.1428 8.2849 16.2583 8.52627 16.4892 9.00902L19.3544 15M19.3544 15L21.2675 19M1.26746 3H7.26746M7.26746 3H10.7675M7.26746 3V1M10.7675 3H13.2675M10.7675 3C10.2713 5.95729 9.12004 8.63618 7.43301 10.8844M9.26746 12C8.65493 11.7248 8.0301 11.3421 7.43301 10.8844M7.43301 10.8844C6.08048 9.84776 4.87022 8.42664 4.26746 7M7.43301 10.8844C5.82832 13.0229 3.73889 14.7718 1.26746 16" stroke="currentColor" stroke-width="1.5" stroke-linecap="round" stroke-linejoin="round"/>
</svg>
