<svg width="23" height="21" viewBox="0 0 23 21" fill="none" xmlns="http://www.w3.org/2000/svg">
<path d="M19.6328 13.1389C18.489 17.1017 14.8341 20 10.5021 20C5.25424 20 1 15.7467 1 10.5C1 5.25329 5.25424 1 10.5021 1C13.1272 1 15.5037 2.06428 17.2234 3.78481C18.9432 5.50534 21.06 8.38889 21.06 8.38889V2.05556" stroke="#121212" stroke-width="2" stroke-linecap="round" stroke-linejoin="round"/>
<path d="M7.56 13.5V8.924L6.48 9.588V8.388L7.56 7.74H8.672V13.5H7.56ZM12.3288 13.62C11.9021 13.62 11.5288 13.5307 11.2088 13.352C10.8888 13.1733 10.6395 12.924 10.4608 12.604C10.2821 12.284 10.1928 11.9107 10.1928 11.484V9.756C10.1928 9.32933 10.2821 8.956 10.4608 8.636C10.6395 8.316 10.8888 8.06667 11.2088 7.888C11.5288 7.70933 11.9021 7.62 12.3288 7.62C12.7555 7.62 13.1288 7.70933 13.4488 7.888C13.7688 8.06667 14.0181 8.316 14.1968 8.636C14.3755 8.956 14.4648 9.32933 14.4648 9.756V11.484C14.4648 11.9107 14.3755 12.284 14.1968 12.604C14.0181 12.924 13.7688 13.1733 13.4488 13.352C13.1288 13.5307 12.7555 13.62 12.3288 13.62ZM12.3288 12.588C12.5208 12.588 12.6941 12.5427 12.8488 12.452C13.0035 12.3613 13.1261 12.2387 13.2168 12.084C13.3075 11.9293 13.3528 11.756 13.3528 11.564V9.668C13.3528 9.476 13.3075 9.30267 13.2168 9.148C13.1261 8.99333 13.0035 8.87067 12.8488 8.78C12.6941 8.68933 12.5208 8.644 12.3288 8.644C12.1368 8.644 11.9635 8.68933 11.8088 8.78C11.6541 8.87067 11.5315 8.99333 11.4408 9.148C11.3501 9.30267 11.3048 9.476 11.3048 9.668V11.564C11.3048 11.756 11.3501 11.9293 11.4408 12.084C11.5315 12.2387 11.6541 12.3613 11.8088 12.452C11.9635 12.5427 12.1368 12.588 12.3288 12.588Z" fill="#121212"/>
</svg>
