<svg width="18" height="19" viewBox="0 0 20 21" fill="none" xmlns="http://www.w3.org/2000/svg">
<path d="M19 16.5V10.5C19 5.52944 14.9706 1.5 10 1.5C5.02944 1.5 1 5.52944 1 10.5V16.5M3.5 19.5C2.11929 19.5 1 18.3807 1 17V15C1 13.6193 2.11929 12.5 3.5 12.5C4.88071 12.5 6 13.6193 6 15V17C6 18.3807 4.88071 19.5 3.5 19.5ZM16.5 19.5C15.1193 19.5 14 18.3807 14 17V15C14 13.6193 15.1193 12.5 16.5 12.5C17.8807 12.5 19 13.6193 19 15V17C19 18.3807 17.8807 19.5 16.5 19.5Z" stroke="white" stroke-width="1.5" stroke-linecap="round" stroke-linejoin="round"/>
</svg>
