<svg width="24" height="24" viewBox="0 0 20 21" fill="none" xmlns="http://www.w3.org/2000/svg">
<path d="M14.1605 15.8944L12.9149 18.6823C12.5621 19.4717 11.4416 19.4717 11.0888 18.6823L9.84321 15.8944C9.64233 15.4449 9.28266 15.0852 8.83308 14.8843L6.04525 13.6387C5.25583 13.286 5.25583 12.1654 6.04524 11.8127L8.83307 10.567C9.28266 10.3662 9.64233 10.0065 9.84321 9.55691L11.0888 6.76908C11.4416 5.97966 12.5621 5.97966 12.9149 6.76908L14.1605 9.55691C14.3614 10.0065 14.721 10.3662 15.1706 10.567L17.9584 11.8127C18.7479 12.1654 18.7479 13.286 17.9584 13.6387L15.1706 14.8843C14.721 15.0852 14.3614 15.4449 14.1605 15.8944Z" stroke="currentColor" stroke-width="1.5"/>
<path d="M8.48563 1.03939C8.29873 0.621086 7.70493 0.621086 7.51803 1.03939L7.14668 1.87051L6.31556 2.24186C5.89725 2.42877 5.89725 3.02256 6.31556 3.20946L7.14668 3.58081L7.51803 4.41193C7.70493 4.83024 8.29873 4.83024 8.48563 4.41193L8.85698 3.58081L9.6881 3.20946C10.1064 3.02256 10.1064 2.42877 9.6881 2.24186L8.85698 1.87051L8.48563 1.03939Z" fill="currentColor"/>
<path d="M3.72753 4.19626C3.44718 3.5688 2.55649 3.5688 2.27613 4.19626L1.71911 5.44294L0.472426 5.99996C-0.155034 6.28032 -0.155034 7.17101 0.472426 7.45136L1.71911 8.00839L2.27613 9.25507C2.55649 9.88253 3.44718 9.88253 3.72753 9.25507L4.28456 8.00839L5.53124 7.45136C6.1587 7.17101 6.1587 6.28032 5.53124 5.99996L4.28456 5.44294L3.72753 4.19626Z" fill="currentColor"/>
</svg>
