<svg width="23" height="23" viewBox="0 0 19 19" fill="none" xmlns="http://www.w3.org/2000/svg">
<path d="M1 17.6649L5.6884 15.8617C5.98828 15.7464 6.13822 15.6887 6.2785 15.6134C6.4031 15.5465 6.52189 15.4693 6.63362 15.3826C6.7594 15.285 6.873 15.1714 7.10019 14.9442L16.6301 5.41435C17.5633 4.48113 17.5633 2.96809 16.6301 2.03487C15.6969 1.10166 14.1838 1.10166 13.2506 2.03487L3.72072 11.5648C3.49352 11.7919 3.37993 11.9055 3.28232 12.0313C3.19562 12.1431 3.11842 12.2618 3.05154 12.3864C2.97624 12.5267 2.91857 12.6767 2.80323 12.9765L1 17.6649ZM1 17.6649L2.73884 13.144C2.86327 12.8205 2.92548 12.6587 3.0322 12.5847C3.12545 12.5199 3.24085 12.4954 3.35236 12.5167C3.47997 12.5411 3.60252 12.6636 3.84761 12.9087L5.75625 14.8174C6.00135 15.0625 6.12389 15.185 6.14826 15.3126C6.16956 15.4241 6.14507 15.5395 6.08032 15.6328C6.00622 15.7395 5.84447 15.8017 5.52095 15.9261L1 17.6649Z" stroke="currentColor" stroke-width="1.5" stroke-linecap="round" stroke-linejoin="round"/>
</svg>
