<svg width="23" height="22" viewBox="0 0 23 22" fill="none" xmlns="http://www.w3.org/2000/svg">
<path d="M7.51886 7.12132H7.52886M1.51886 4.32132L1.51886 8.79584C1.51886 9.28502 1.51886 9.52961 1.57412 9.75978C1.62311 9.96386 1.70392 10.1589 1.81358 10.3379C1.93726 10.5397 2.11021 10.7127 2.45612 11.0586L10.1247 18.7272C11.3128 19.9153 11.9068 20.5093 12.5918 20.7318C13.1943 20.9276 13.8434 20.9276 14.4459 20.7318C15.1309 20.5093 15.7249 19.9153 16.913 18.7272L19.1247 16.5154C20.3128 15.3274 20.9068 14.7334 21.1294 14.0484C21.3252 13.4458 21.3252 12.7968 21.1294 12.1943C20.9068 11.5093 20.3128 10.9153 19.1247 9.72721L11.4561 2.05858C11.1102 1.71268 10.9373 1.53973 10.7354 1.41604C10.5565 1.30638 10.3614 1.22558 10.1573 1.17658C9.92715 1.12132 9.68256 1.12132 9.19338 1.12132L4.71886 1.12132C3.59876 1.12132 3.0387 1.12132 2.61088 1.33931C2.23456 1.53106 1.92859 1.83702 1.73685 2.21334C1.51886 2.64117 1.51886 3.20122 1.51886 4.32132ZM8.01886 7.12132C8.01886 7.39746 7.795 7.62132 7.51886 7.62132C7.24272 7.62132 7.01886 7.39746 7.01886 7.12132C7.01886 6.84518 7.24272 6.62132 7.51886 6.62132C7.795 6.62132 8.01886 6.84518 8.01886 7.12132Z" stroke="currentColor" stroke-width="1.5" stroke-linecap="round" stroke-linejoin="round"/>
</svg>
