<svg width="22" height="20" viewBox="0 0 22 20" fill="none" xmlns="http://www.w3.org/2000/svg">
<path d="M12 5H4.2C3.0799 5 2.51984 5 2.09202 5.21799C1.71569 5.40973 1.40973 5.71569 1.21799 6.09202C1 6.51984 1 7.0799 1 8.2V11.8C1 12.9201 1 13.4802 1.21799 13.908C1.40973 14.2843 1.71569 14.5903 2.09202 14.782C2.51984 15 3.07989 15 4.2 15H12M16 5H17.8C18.9201 5 19.4802 5 19.908 5.21799C20.2843 5.40973 20.5903 5.71569 20.782 6.09202C21 6.51984 21 7.0799 21 8.2V11.8C21 12.9201 21 13.4802 20.782 13.908C20.5903 14.2843 20.2843 14.5903 19.908 14.782C19.4802 15 18.9201 15 17.8 15H16M16 19L16 1M18.5 1.00001L13.5 1M18.5 19L13.5 19" stroke="currentColor" stroke-width="1.8" stroke-linecap="round" stroke-linejoin="round"/>
</svg>
