<?xml version="1.0" encoding="UTF-8"?>
<!-- Generated by Pixelmator Pro 3.4.3 -->
<svg width="100%" height="100%" viewBox="0 0 636 503" xmlns="http://www.w3.org/2000/svg">
    <g id="Kluwer-logo-copy">
        <g id="Kluwer">
            <path id="Path" fill="#ffffff" stroke="none" d="M 113.273643 34 C 161.091629 80.693329 207.862503 128.511322 254.904861 175.90271 C 263.475616 185.753265 273.675262 193.936249 282.439941 203.631714 C 286.24057 207.936493 290.545349 211.814667 294.501099 216.003082 C 294.30719 272.430634 294.462311 328.819397 294.423523 385.246979 C 294.578644 414.798737 294.074493 444.350494 294.733795 473.863434 C 234.040237 413.596497 173.695724 352.941711 113.389984 292.286926 C 113.389984 206.191315 113.661461 120.095642 113.273643 34 Z"/>
            <path id="path1" fill="#ffffff" stroke="none" d="M 389.460663 86.743286 C 422.580322 54.515564 468.924591 37.025024 514.881042 36.210602 C 514.997375 120.056885 514.764709 203.903168 515.074951 287.749451 C 502.781128 288.835358 490.526062 290.386627 478.426147 292.946228 C 431.461365 304.154175 388.180847 332.813934 362.197021 373.922668 C 348.584595 395.601746 339.509674 420.150604 336.135651 445.513916 C 335.243652 452.804901 335.127319 460.289795 333.188232 467.386871 C 333.769958 445.979309 334.274109 424.571747 334.002625 403.202972 C 334.002625 344.021912 333.925079 284.802032 334.041412 225.620972 C 332.451355 174.467773 351.338104 121.646912 389.460663 86.743286 Z"/>
            <path id="path2" fill="#ffffff" stroke="none" d="M 1.089253 235.925537 C 28.314093 235.770416 55.577709 235.847961 82.802551 235.886749 C 82.647423 261.715454 82.880119 287.582886 82.686203 313.411621 C 139.230103 369.955505 195.735214 426.49939 252.279114 483.043304 C 258.561768 489.13205 264.53418 495.492279 270.584137 501.774902 C 226.877014 501.425873 183.169907 501.891266 139.462784 501.542236 C 93.312431 501.270752 47.20084 501.852509 1.089253 501.6586 C 0.934126 413.080902 1.01169 324.464417 1.089253 235.925537 Z"/>
            <path id="path3" fill="#ffffff" stroke="none" d="M 543.141602 235.886749 C 570.366455 235.770416 597.591248 235.770416 624.854858 235.886749 C 624.893616 324.464417 624.971252 413.042145 624.816101 501.6586 C 537.130371 501.813721 449.444702 501.231964 361.759003 501.387115 C 361.875336 497.043549 362.379517 492.738739 362.573425 488.43396 C 362.263184 474.860352 365.016663 461.441803 368.351898 448.372345 C 378.629089 407.380005 404.031189 370.071838 439.438995 346.841553 C 462.901978 330.398041 490.786133 321.284302 519.058105 317.561279 C 527.124695 316.746857 535.26886 317.018311 543.296753 315.699738 C 543.180359 289.095398 542.870117 262.491089 543.141602 235.886749 Z"/>
        </g>
        <g id="Layer1"/>
    </g>
</svg>
